/* XPM */
static char *result[] = {
/* columns rows colors chars-per-pixel */
"50 50 203 2 ",
"   c #010101",
".  c #060708",
"X  c #07090A",
"o  c #0B0C0D",
"O  c #1A130C",
"+  c #0D0F10",
"@  c #0F1112",
"#  c #121313",
"$  c #141718",
"%  c #16191B",
"&  c #181C1D",
"*  c #231B12",
"=  c #27231D",
"-  c #37291C",
";  c #1A1E23",
":  c #1D2124",
">  c #212425",
",  c #20252A",
"<  c #262B2D",
"1  c #2A2A2B",
"2  c #362E24",
"3  c #383026",
"4  c #232B34",
"5  c #2A2E31",
"6  c #2D3336",
"7  c #2D3439",
"8  c #383836",
"9  c #333A3D",
"0  c #49433A",
"q  c #584733",
"w  c #674F37",
"e  c #7D5E3E",
"r  c #353E43",
"t  c #383F43",
"y  c #3A4145",
"u  c #39434D",
"i  c #3B4652",
"p  c #4A4847",
"a  c #414A4E",
"s  c #59524A",
"d  c #454E52",
"f  c #49535A",
"g  c #55585A",
"h  c #745B42",
"j  c #78644F",
"k  c #4C5C6B",
"l  c #525C61",
"z  c #546068",
"x  c #5A666D",
"c  c #5E696E",
"v  c #5C6B74",
"b  c #656565",
"n  c #696969",
"m  c #63717B",
"M  c #6A787D",
"N  c #896A4B",
"B  c #8A6E52",
"V  c #B0855A",
"C  c #AB8D6C",
"Z  c #AF8F6E",
"A  c #AB9175",
"S  c #C89A6B",
"D  c #D0A273",
"F  c #D4A779",
"G  c #E5AF76",
"H  c #E6B27D",
"J  c #5E7185",
"K  c #657681",
"L  c #6C7B84",
"P  c #707F86",
"I  c #637C9A",
"U  c #73828A",
"Y  c #748288",
"T  c #778A97",
"R  c #7C8C94",
"E  c #7F929F",
"W  c #6580A1",
"Q  c #7C92A7",
"!  c #7595BB",
"~  c #7B9BBE",
"^  c #7D9CC1",
"/  c #838E91",
"(  c #849094",
")  c #85959C",
"_  c #87989F",
"`  c #939B9C",
"'  c #B8AC9E",
"]  c #8296A3",
"[  c #8799A1",
"{  c #8A9BA3",
"}  c #929DA2",
"|  c #859EB8",
" . c #96A7AD",
".. c #89A2B8",
"X. c #96AAB4",
"o. c #9AAEB6",
"O. c #93A9B8",
"+. c #9BAEBB",
"@. c #A4A4A4",
"#. c #ACADAC",
"$. c #B2AFA8",
"%. c #BFB6AE",
"&. c #A3B5BE",
"*. c #B6B7B5",
"=. c #BDBAB4",
"-. c #D2AD85",
";. c #DAB38B",
":. c #CEAE91",
">. c #D9BC9B",
",. c #E8B786",
"<. c #EBBB8B",
"1. c #F7BF84",
"2. c #E2BE97",
"3. c #CBBDAB",
"4. c #D3BEA3",
"5. c #B8C0BC",
"6. c #FAC186",
"7. c #F9C58E",
"8. c #E8C299",
"9. c #F5C492",
"0. c #F9C895",
"q. c #FCCC9B",
"w. c #D9C1A7",
"e. c #C9C5BA",
"r. c #D5C8BA",
"t. c #EDCCA5",
"y. c #FBCFA2",
"u. c #F9D3A7",
"i. c #FCD2A5",
"p. c #ECD4BE",
"a. c #F7D8BB",
"s. c #809FC1",
"d. c #84A3C4",
"f. c #8AA7C6",
"g. c #8CA9C6",
"h. c #86A5CA",
"j. c #88A7CA",
"k. c #8DABCA",
"l. c #91AECB",
"z. c #99B3C6",
"x. c #95B2CD",
"c. c #9AB5CD",
"v. c #9DB9CE",
"b. c #95B3D2",
"n. c #9AB6D2",
"m. c #9EBAD3",
"M. c #91B2D8",
"N. c #9ABADB",
"B. c #A3B6C1",
"V. c #A4B9C3",
"C. c #A7BDC9",
"Z. c #A3BBCD",
"A. c #A2BED4",
"S. c #A1BFDA",
"D. c #ABC2CC",
"F. c #BAC5C7",
"G. c #A6C1D6",
"H. c #AAC4D5",
"J. c #AFC8D7",
"K. c #A6C2DA",
"L. c #AAC5DA",
"P. c #AEC9DB",
"I. c #B2C6D1",
"U. c #B4CAD5",
"Y. c #BAC9D4",
"T. c #B2CCDD",
"R. c #B9CFDB",
"E. c #B6D0DE",
"W. c #BAD3DE",
"Q. c #ACC8E0",
"!. c #B4CEE1",
"~. c #B6D1E2",
"^. c #BBD5E2",
"/. c #BFD8E5",
"(. c #B4D0E8",
"). c #BBD6EA",
"_. c #BED9EA",
"`. c #A0D2F1",
"'. c #C7CAC5",
"]. c #D3CEC1",
"[. c #C7D1CF",
"{. c #D2D1C8",
"}. c #C5D5DA",
"|. c #CBDADD",
" X c LightGray",
".X c #DBDBDB",
"XX c #F6D9C0",
"oX c #FCE5C9",
"OX c #F4E4D6",
"+X c #F4E6DA",
"@X c #C2DBE6",
"#X c #C4DDE9",
"$X c #C7E0EB",
"%X c #CAE2ED",
"&X c #C6E1F1",
"*X c #CCE6F1",
"=X c #CFE8F3",
"-X c #D2EBF4",
";X c #D7EFF8",
":X c #D9F0F7",
">X c #D7F0F8",
",X c #DBF2FA",
"<X c #E9E9EA",
/* pixels */
"P.P.P.^.#X^.*X@XW.W./.@X^.$X;X%X#X$X#X#X@X@XW.@XT.E.^.%X$X$X$XT.G.T.P.L./.*X%X^.@X,X-X#X$XT.x.k.^.@X",
"^.G.~.@X@X#X%X#X%XW.$X-X%X%X;X@X#X#X#X@X#XU.@XW.J.J.^.@XW.@X#XR.@X$XT.*X,X%X^.$X*X-X@X$X$X_.K.k.^.#X",
"$XW.E.@X/.$X$X#X@X#X%X%X$X;X%X@X@X@X@X#XW. .R Y P K L P R D.T.P.#XE.@X,X=X~.^.Q.^.$X$X#X$X@X@XP.~.=X",
"$X@X#X=X@X@X$X#X$X$X$X@X#X%X@X~.#X/.W.D.o.d O # 3 q q q s } A.@X^.Q.).#X^./.T.K.E.W.@X@X$X#X$X~.~.$X",
"#X#X$X%X#X#X#X@X/././.^.$X$Xm.x.H.G.W. .g = O * N S S F D %.Z.P.H.x.P.$X/./.~.T.U./.@X=X#X$X@X/._.@X",
"#X#X#X$X$X#X@X/.T.m.l.K.T.K.k.^ d.@X;XY 3 w e B :.p.'.r.8.e.D.x.g.c.$X$X/.#X$X$X/.@X@X=X$X@X/.T.@X#X",
"#X#X#X#X@X@XT.T.z.^ M.h.h.h.d.m.L.~./.( j Z H ,.a.<X`.Y.2.3.+.f.x.P.=X=X$X$X@X@X$X$X$X*X*X@XL.j.K.$X",
"#X#X#X#X!.J.v.g.n.(.$XE.P.H.x.P.@XE.P.$.-.,.6.7.y.a.].w.<.2.%.z.b.~.;X%X@X/././.E./././.@X@X/.T.L./.",
"#X@X@X}.W.W.U.E.).K.K.G.~././.~.P.!.R.r.9.7.9.0.1.1.1.1.<.t.3.Z.K.^.~.P.K.T./.@X/.@X@XW./.@X@X%X^./.",
"#X$X@X$X%X$X*X;X$XL.G.n.c.G.P.E.A.A.!.'.2.<.0.q.y.i.y.q.<.r.I.A.T.E./.$X^.^./.$X$X@XE.E.%X*X%X$X/.@X",
"$X$X$X$X$X@X%X*X%X@X/.@X^.T.L.!.#X!.A.B.=.2.0.q.XXOX+XoXu.{.S.!./.$X$X$X$X%X@X@X$X@X/./.@X$X$X$X#X#X",
"@X@X@X@X@X$X$X%X%X$X$X/.^._._./.!.k.l.!.|.4.9.y.XXOX+XoXu.e.l.P.).).$X$X@X$X$X@X$X$X$X$X@X$X@X$X$X$X",
"$X$X$X@X@X$X$X@X$X@X#X@XW.*XL.k.s.s.k.P.}.4.1.1.q.i.i.u.t.'.Y.L.d.^ m.L.^.$X#X/.^.@X@X@X@X$X@X@X#X@X",
"/./.$X@X$X@X@X$X$X@X#X@X^./.x.d.s.l.n.K.}.>.,.,.,.7.7.t.].@X#XA.k.g.k.f.x.G.v.P.T.P.^.@X$X@X$X$X@X@X",
"/.@X/.$X@X$X$X#X#X@X/.^.H.x.k.n.P.Z.s.| ` C S D G H F ' V.@XT.x.x.E.T.x.k.P.J.G.G.K._.%X@X$X@X@X^./.",
"@X/.@XW.W.W.W.@X@X@X^.m.k.K.~._.K.s.| M 8 2 N -.<.F h g Q H.T.A.c.c.W.$XP.^.$X^./.*X).@X$X$X@X@X@XW.",
":X-X*X#X@X@X$X@X@XE.^.T.E./.@X^.m.O.v 1 .   n r.OXr.p ; a Q x.Z.E.A.(.(.K./.@X/.=X=X@X$X@X^.P.~./.W.",
"-X$X@XT.n.n.#X%X@X%X>X$X@X/.E.x.T.X.1       g =.<X.Xb @ X g ] A.~._._.P.P./.@XW.^.$X@X/.^.P.~.^.E./.",
"$X$X~.h.^ d.n.*X*X%X_.^.W.^.P.L.U.] ,     . : p *..Xn #   o u | L.^.$X/.$X$X$X/.@X$X@XP.K./.@X@X@X@X",
"@X@X^.G.k.^ d.~.%X/.E.A.P.!.J.G.E r o     .   # @..Xn @     4 I g.P./././.$X@X$X$X@X/._.K.m.~./.$X$X",
"@X%X#X@XR.H.L.^.^.^.^.G.l.~.@XW.l o           1 #..Xn @     ; k W d.^.$X_./.$X/.@X$X$X%X/.^.^./.@X@X",
"%X%X%X#X$X#X$X*X/.^.#XT.L.x.T.^.f +           1 #..Xn @     . ; m ..m._./.^.^./.@X@X@X@X@X@X@X@X$X@X",
"#X#X^.@X%X#X%X-X%X%XW.#X*XP.K.g.f X           1 #..Xn @         x D.J.G.P.^.E.^.^.~.~.@X@X@X%X$X$X@X",
"W.#X@X@X$XW.@X/.@X^.~.@XE./.J.T r .           1 #..Xn #         c z.c.H.G.v.P.^.^.T.P./.$X@X@X/.W.J.",
"W.^.W.W.#XW.^./.%X~.x.K.G.L.Q 7 o o $ +       1 #..Xn @         l Q f.K.^.k.h.N.K.n.P.$X$X@X^.E.W.^.",
"#X$X#X$X$X#X^.S.~.x.h.n.x.K.L $   : c d +     1 @..Xn #         < c +.T.L.m.S.K.K.~._.$X@XW.E.^._.@X",
"^.^.#X#X@X^.^.*X=XL.n.b.k.g.J ;   9 X.m &     1 $..Xn # . 1 5 o   > } R./.#X/.$XP.^.^.^./.$XE.L.T.^.",
"^.^.@X$X%XT.A.@XP.P.K.n.c.m.U 0 - s ..L &     1 @. Xn # # / _ 0 - 0  .R.>X-X>X/.x.x.G.K.T.W.^.n.m._.",
"v.P.@X#XT.c.L.).K.n.n.m.T.).#.C V A B.U &     $ v B 8 o & { [.A V C 5.$X-X*X$X^.G.l.K.^.P.E./.^.b.x.",
"x.T./._.^./.@XL.k.n.n.k.n.K.*.,.,.3.Y.U %       @ # .   # _ '.;.,.4.[.@X$X@X^.P.n.f.f.L.E.^.P.^.c.d.",
").*X).&X=X#XT.P.P.^.G.j.n.P.3.:.4.|.@XL %       .     o > _ '.>.w.5.U.^.^./.^.~.P.G.c.P./.^.k.K.G.N.",
"L.m.l.N.l.b.l.@X*X&XL.G.~.P.C.=.F.@XW.M $             5 M D.}.e.F.W.&XK.b.L.L.~./.P.K.c.P.$X_.N.h.S.",
"T.P.j.~ d.d.h.x.~.@X^./.~.T.m.z.T.W.^.) y #           t { U.W.}.#X;X!.A.P.H.L.n.P.T.m.k.A._.-XK.G.E.",
"@X@X^.P.P.G.k.d.b.c.H.L.L.T.~.L.K./.$XE.X.9 .         # 9 [ W.W.*X#XP.^.^.@X#X#X/.^.T.E./.~.!./.$X$X",
"@X^.R.E.T.T.Z.c.v.x.G.A.m.A.x.U.K.S._.*XI.d o           o R W.$X%X$X@X@X@X@X@X@X#X#X@X$X*X%X~.~.@X@X",
"$X$X$X=X$X/.T.~.@X$X@X/.$X/.~._.$Xm.K.D._ 9 .   : < o   $ ( W.%X*X%X&X$X$X$XW.#X@X@X#X@X@X@XH.l.E./.",
"/.W._.~.^.^.$X>X-X=X@X@X%X_.=X@XQ.j.x.U 9 @   . c R 5   $ Y U.@X$X-X$X$X@XW.W.$X@XW./.@X/.E.c.Z./.$X",
"P.T.G.m.K.P.$X_.~.~._.$X$XL.K.m.n.^ d.m $       U V.9   o y R U.#X#X@X@XW.$X/.T.W.^.P.n.T.~./.%X*X$X",
"P.m.K.).@X~.P.A.k.^ x.^./.m.n.d.g.m.A.L %   @ < ( B.l ; .   t B.#X#X#XW.@X*XE.H.m.n.^ j.K./.&X*XP.P.",
"~ k.M.P.#X/.P.c.A.A.m.T.#X/.~.m.g.T.@XL %   6 R D.W.U.x #   9 o.W.#X@X@X$X#XE.G.P.).l...T.$X@XT.m.b.",
"A.j.! v.W.^.W.T.$X-X@XL.P.$X@XR.P./.#XY %   i V./.>X$XM &   y X.#X@X$X$X@X$X@X/.$X).f.m.=X=X*X/.~.k.",
"^.g.g.T.*X*X@X=X-X*X^.G.^._.W./.@XE.&.z #   r +.W.$X@XE y + , _ U.$X@XW.^.~.~.@X/.L.G.$X$X*X@X$X_.~.",
"/._.$X>X#XK.~._.^.@X/.P.^.^.G.A.H.X.l ; .   y X./.$X$XZ.T 4 + 6 R W.@X@X/././.W.~./.$X/.@XW./.$X/.E.",
"#X*X%X^.K.L.P.T.H.Z.G.m.G.G.n.n.m...:   o y R v./.@X$X_.f.i o   x U.$X$X@X$X@X$X%X$X/.%X@X@X$XL.l.P.",
"#X#X/.^.@X@X/.@XW.W.Q.n.m.Z.k.x.x.I ;   # R W.^.@X$X-X*Xz.u .   v Y.@XW./.$X*X$X@X$X@X$XW.H.G.x.P.@X",
"%X$X#X#X#X%X#X=X#X-X*XP.g.A.J.G.x.Q 5   ; { @X$X$X$X@X/.D.d X   x D.@X$X%X*X$X@X$X@X$X@XG.x.T.=X%X$X",
"#X#X#X#X@X#X#X#X@X@X/.E.G.k.m.K.).o.< & z &.W.$X#X@X$X$XU.d X   6 Y D.#X$X%X@XW.@X$X^.n.k.b.G.%X%X@X",
"#X#X#X@X#X#X#X@X#X/.W.^.c.n.h.K.^.O.a x D.W.#X%X#X@X$X$XU.c 6 < 1 a X.@X$X$XW.@X%X^.d.^ ^ ~ x.$X_.^.",
"/.@X!.!.L.T.^.#X^.^.#XW.G.A.N.!.@X^. .C.^.@X$X$X^.^.@X@XW.&.[ ) R _ D./.@XW.W.%X$XU.f.x.G.^ k.m.~.~.",
"^.L.A.T.A.z.L._.A.L.W./.~.G.@X%X%X#X#X#X@X#X$X#X^.H././././.E.H./.%XJ.v.E.E.W.=X@X^.$X=X-X~.~ x.@X/."
};
