/* XPM */
static char *result[] = {
/* columns rows colors chars-per-pixel */
"50 50 58 1 ",
"  c #7595BB",
". c #7B9BBE",
"X c #7D9DC1",
"o c #82A0BF",
"O c #809FC2",
"+ c #84A3C4",
"@ c #89A7C6",
"# c #8BA9C6",
"$ c #86A5CA",
"% c #89A7C9",
"& c #8CABCA",
"* c #90ADC7",
"= c #91AECB",
"- c #97B1C6",
"; c #95B1CD",
": c #9AB5CE",
"> c #9DB9CE",
", c #95B3D2",
"< c #9AB6D2",
"1 c #9EBAD2",
"2 c #91B2D8",
"3 c #9BBADA",
"4 c #A1BBCF",
"5 c #A2BED4",
"6 c #A2BFDA",
"7 c #A6C1D6",
"8 c #AAC4D6",
"9 c #AFC8D7",
"0 c #A6C2DA",
"q c #AAC6DA",
"w c #AEC9DB",
"e c #B3CDDD",
"r c #BACFDD",
"t c #B7D0DE",
"y c #B9D2DE",
"u c #A9C5E0",
"i c #ADCAE0",
"p c #B4CEE1",
"a c #B6D1E2",
"s c #BBD5E2",
"d c #BFD8E5",
"f c #B4D0E8",
"g c #BAD6EA",
"h c #BFD9EA",
"j c #C1DBE6",
"k c #C4DDE9",
"l c #C8DFE8",
"z c #C4DFF0",
"x c #C7E0EB",
"c c #CAE2ED",
"v c #C6E1F1",
"b c #CDE6F1",
"n c #CFE8F3",
"m c #D3EBF4",
"M c #D6EFF9",
"N c #D9F0F7",
"B c #D7F0F8",
"V c #DBF2FA",
/* pixels */
"wwqsjsbjyydjyxBcxkkkjddhtesccxxw5awqhcxshNMkxt:&sj",
"s7sjjkcxcyxmccmkkkkjksxkatxcxkktjxecVnsknmjkkh5%ax",
"xytjhxxkjxccxmbjxjjkdkxchqhkkxswktjVnespsxxkjxkwsn",
"xjknjjxkxxxhxcjtjdttcmxs7eysks8hswgkshe7tydkxkxaax",
"kkxckkkjdddsxx1:87snmxjy@>9tse598:wxjdte9jjcxkjshh",
"kkkxxkkst:&qwq&X+jNnxdhj87ydse7-@:xxhkxkdkkmxkhejk",
"kxkkjje9-+2@+$+18ahjxj7:thhhh0@@:qnmkxkjxxxbcjw@7x",
"kkkkp9>*<fxaqq;wjtwwdx9&eyaguX+&;aMxjddstsddjjde8h",
"kjjdyy9tgq77ahstwethq7weddyw-*>,5saeqwjjdhxyjkkcsd",
"kkjxcxbNxq7::7wt17akw 1hbxjdes87ethxsahkxkttxccxjj",
"xkkxxjxcxxddstwwxp118511tdccMh1adxxjccjjkkdsjxkkkx",
"xkjjlxxxcxxdahhdp&:ejt7,:axxx0&wghxxjxkxxjxxkkkkkx",
"jxxjjxjxxjjjybq&X.#ejka05ajkhwwq++1wsxkjykkjxkjkkj",
"ddjlxxxlxjxdsd:+$=<0hs17awskdxx7&%&+;54we9yjjkxxjj",
"djjxdjlxxjss8=&,q<X1ja1+,7a05de;;ee-&e9773hcjkkjyy",
"jdjrrdyjdjd1&qgdq@:ejja;.&& ;ww01:ykwskskbdkxkjjky",
"Nmbkjjxjjtyethks18ykk8q7-=$=-111e5fp0hjsbmjkkswsdt",
"mxhe<<lxjcBxjsa:ejjs4+5hyeeekhwwahkewdkssxkjaeesrd",
"xxa@X+:bbchsyywqjh8@%%,ptklsp;<1qdjjjkkkjkjw7sjjkj",
"kjs0%O+pxht7wpqqs1#,@.<pjcck1 XX@wjjjkkkkjdh05ejkk",
"jxxje8wdssy7=shljws5@7pzbbbkg1&X %skjhkkkkkxjsthxk",
"xccklkxbjsxeq;ex7eq#:7<wsbktdha77;5hjsyhkkjjjkkkkj",
"kksjxkcmcxykbq0,5==5*%+qcckhdjjjjs859stssspjjklkxj",
"tkjjkjjsjssjyjj0>XO81$X=psjkke;5ew>88>qatewhkkjdy9",
"tjysjysdcp;q0qe7=6sbh:@ep7yjkj57e*&8y&$3q,wxxkytyy",
"kxklxka0p:$<,57=fmjkeeqbkeytjjkcdtttq56q0akxjyysjj",
"jjkkjssnbq<;&#=0vka<esbcdjetykckxxxyjkjkwassdxtwes",
"eyjlce5jweq,:1=ej06qwjjrjkdtmVckjxjymmNh;,77eya11k",
":9jke;qdq,21edpkji0jdskbncjnmkjlxjjxmbxs5&qaeeja,,",
":ehjsdjq#<1=:6ujljphj7dkNcjmmcjjxjjxxksq1@+9taws>X",
"gbgvnkpwws0%1qw5evjde,5knjkVcjjjdeeasssaw71whs%q13",
"q1=3,==hbzq7peqqpjyse::dlkccjkjjtsv0,wweswq1wxh3$0",
"pw#X+@@-akshte1;eyskcy8djjjxxkjykMa5e7q:ee<#6jm07a",
"sjsq87=O,<8qqes80kkxnsmmyxxxyjjyclessjkkssesjppdkk",
"jstyee5::;0>44:9q3kcdkmjkxjjlcklckjjjjjjkkkkbcapjj",
"kxxncseajxjjxhahk1qyjcjjkljcckjccbckxxyljjkjjk8=sj",
"dshassxMmbkjchbkw&;wddjcclxkkjjkcmxkjtyxkyjjdt:>jk",
"ee716wkjaadccq012X$ejxccjkkjkkkkkjjjyxstysq>eydcbj",
"q>0hkpe5#X=sh1;$@11sxxhtyyjkxjjxkkksjnt81,++0dbbwe",
".#2ikdq:571ejja1#ejjxjjjyxNkkjkyykjjxxt5wh=oexjw42",
"5% >tsyekmkqwkje8hkkkxjjdNx9ykyekjkkkkjskg$>mnnyp&",
"s##ebbjnbmd5shydhdkxy4qyyxdsde7Mbbksstajhq8kxckxjp",
"dhxMk0pjskdwss85qeke7>8edxxe8$2bcxjjjjjysdkjkyjxdy",
"kbcs0wwe8545571:1g0;djkqdjxk,%$0lkkkkklxkxkxjjx8&w",
"kkdsjjdkyru<55=*,O ,jckskcmnq:1wjkksjxcxkkkkt85:wj",
"cxkklckbkMbw@498=0hqqxxkjxjhyyjjjjkjcbxjxkkj8;pnbk",
"kkkkjkklkjdt5=10gnxsejjkxjxxkxkkljkkxcddjks>%,5xck",
"kkjkkkkjksys<<$6gassjdkckjxjklkjkkkkcjyjxs+ $.<kjs",
"dkepqesksskt773pjxjkkjxkssjjjjjtyysjjtycc9o:4o&1ae",
"sq5e5-qh5qyjs5hcbxkkkkxksqhjjst8kcw4etsnjscmMa.=kj"
};
