/* XPM */
static char *result[] = {
/* columns rows colors chars-per-pixel */
"50 50 199 2 ",
"   c #2B0904",
".  c #330F04",
"X  c #321404",
"o  c #381604",
"O  c #331A05",
"+  c #3B1C04",
"@  c #351E0C",
"#  c #3A1F0D",
"$  c #351615",
"%  c #3B1E13",
"&  c #381914",
"*  c #37200D",
"=  c #3C230D",
"-  c #362112",
";  c #3B2411",
":  c #3F2E24",
">  c #431F05",
",  c #442305",
"<  c #4D2705",
"1  c #4E2A05",
"2  c #42270D",
"3  c #44290E",
"4  c #4B2D0E",
"5  c #522C05",
"6  c #542D09",
"7  c #4F300F",
"8  c #533006",
"9  c #5B3506",
"0  c #53320F",
"q  c #58350C",
"w  c #5D390F",
"e  c #422513",
"r  c #442911",
"t  c #4C2D12",
"y  c #512F14",
"u  c #4F3010",
"i  c #45311E",
"p  c #48311E",
"a  c #553412",
"s  c #593711",
"d  c #5D3912",
"f  c #56381B",
"g  c #5A3B1C",
"h  c #613A05",
"j  c #623C0C",
"k  c #613D13",
"l  c #423125",
"z  c #493522",
"x  c #48372A",
"c  c #543B22",
"v  c #5A3F23",
"b  c #513E2C",
"n  c #593F28",
"m  c #483A31",
"M  c #674115",
"N  c #66441B",
"B  c #5E4224",
"V  c #57422E",
"C  c #5B422B",
"Z  c #4F473F",
"A  c #574637",
"S  c #55483F",
"D  c #5D4B3C",
"F  c #624425",
"G  c #684A27",
"H  c #674F33",
"J  c #614E3D",
"K  c #6B533A",
"L  c #715B3F",
"P  c #544741",
"I  c #564B44",
"U  c #5A4D45",
"Y  c #564E48",
"T  c #594B48",
"R  c #5E5146",
"E  c #5B524B",
"W  c #5C5651",
"Q  c #5D5854",
"!  c #5F5C58",
"~  c #614F42",
"^  c #645243",
"/  c #6B5643",
"(  c #6D5A42",
")  c #62554C",
"_  c #685749",
"`  c #66594F",
"'  c #6B5B4D",
"]  c #715D44",
"[  c #705F4C",
"{  c #645B55",
"}  c #6A5D53",
"|  c #625E59",
" . c #74634E",
".. c #7A674E",
"X. c #65605B",
"o. c #6D635C",
"O. c #786955",
"+. c #6B6662",
"@. c #6D6965",
"#. c #6C6A67",
"$. c #706660",
"%. c #726A65",
"&. c #736E69",
"*. c #7C7366",
"=. c #75716E",
"-. c #7A736C",
";. c #7F786D",
":. c #767471",
">. c #7A7672",
",. c #7D7976",
"<. c #7E7C79",
"1. c #816E53",
"2. c #877861",
"3. c #847C6D",
"4. c #887E6B",
"5. c #877F70",
"6. c #817E7B",
"7. c #8C826F",
"8. c #8D8471",
"9. c #84817E",
"0. c #8C867A",
"q. c #938E7E",
"w. c #707F92",
"e. c #7A8897",
"r. c #7595BA",
"t. c #7B9ABC",
"y. c #7C9BC0",
"u. c #858381",
"i. c #898986",
"p. c #948F81",
"a. c #959286",
"s. c #939692",
"d. c #9BA19F",
"f. c #A2A196",
"g. c #8B99A5",
"h. c #959EA3",
"j. c #97A0A3",
"k. c #9CA2A4",
"l. c #95A3AA",
"z. c #9BA6AA",
"x. c #9EA9AB",
"c. c #8CA4BB",
"v. c #9DABB2",
"b. c #A3ADAE",
"n. c #A6ADB1",
"m. c #A7B1B4",
"M. c #AAB4B3",
"N. c #AEB8B6",
"B. c #A5B3BA",
"V. c #A9B6BA",
"C. c #ACB9BD",
"Z. c #86A4C4",
"A. c #8CA9C7",
"S. c #8DABCB",
"D. c #92AFCB",
"F. c #95B2CD",
"G. c #9BB6CD",
"H. c #9EB9CE",
"J. c #93B1D2",
"K. c #99B6D2",
"L. c #9EBAD2",
"P. c #9AB9DB",
"I. c #ADBDC2",
"U. c #A7BBC8",
"Y. c #B2BFC2",
"T. c #A2BDD4",
"R. c #A1BFDB",
"E. c #AEC2CB",
"W. c #B3C1C5",
"Q. c #B3C4CA",
"!. c #B7C8CE",
"~. c #A6C1D5",
"^. c #AAC3D3",
"/. c #A8C3D9",
"(. c #ABC6DA",
"). c #AEC8DA",
"_. c #B1C7D3",
"`. c #B3CAD5",
"'. c #BBCFD6",
"]. c #B3CDDD",
"[. c #BBD0D7",
"{. c #B6D0DE",
"}. c #BBD2DD",
"|. c #B4CFE0",
" X c #B6D1E2",
".X c #BBD5E2",
"XX c #BFD8E4",
"oX c #BAD6EB",
"OX c #BFDAE9",
"+X c #C0D5DC",
"@X c #C2DBE6",
"#X c #C4DBE5",
"$X c #C4DEE9",
"%X c #C7E0EC",
"&X c #CAE2ED",
"*X c #CCE5F2",
"=X c #D3EBF4",
"-X c #D6EFF8",
";X c #D9F0F7",
/* pixels */
").).)..X$X.X*X@X{.{.C.l.l.V.W.C.C.C.C.C.B.B.B.B.B.B.B.I.C.Y.B.h.g.n.v.v.v.v.C._.XX;X-X#X%X].J.S..XXX",
".X~. X@X@X$X&X$X&X[.j.+.X.X.@.:.9.6.6.i.u.-.#.>.9.u.6.6.6.u.6.:.6.6.>.:.=.=.u.B.*X=XXX%X$XXX~.S..X%X",
"%X.X{.@X@X%X%X.XW.V.s.&.X.P Z ! &.%.=.-.o.R S X.&.&.&.&.o.$.&.*.=.+.E U ` } o.i.N.Y.[.%X%X$X%X(..X*X",
"%X@X$X*X@X@X$XW.*.B B V B f i : l b V B B k F V l l x n v c F F B z - ; 7 w d N G H a.@X%X#X%X.X X%X",
"#X%X%X&X$X#X#XC. .s 7 8 9 q , X X , 1 5 q k j 8 + X + < 6 6 9 h 9 > O = s k k k M N q.&X%X%XXXXXOXOX",
"@X%X#X%X$X$X#XV. .s a s d a 2 * - r a a s d d a - @ 2 7 a s k k d 2 @ - y k k k M N q.&X%X@X.X{.OX$X",
"%X$X%X#X%XXX].v.( s s s s 7 2 @ # 3 0 q w s a 4 = @ = 7 0 d k k d 2 @ = a k k k M N q.&X&X#X).S./.%X",
"%X@X%X#X{.).H.e.' d d s 0 0 2 # * 3 0 q s q 0 4 * @ 2 0 d d k k s 2 @ = a k k k M N q.}.}.@XXX)./.XX",
"@XXX%X}.'.I.U.h. .a a d s 7 2 @ = 2 a d s 0 a 3 * # = a d q k k d 2 @ = a k k k k N 8.W.W.[.#X&X.XXX",
"%X%XXX%XW.5. . .B a a s s 0 2 & # 2 a s s 7 a 4 = * e y a 0 s k a 2 @ ; a d s s k M H ..1.f.#X$XXX$X",
"%X%XXX&Xm.] s s a a a 0 0 0 2 & & r a 0 0 7 a 4 * @ ; t 7 0 a 0 t % @ % t s d d k k k M M 7.+X$X#X$X",
"XX%X@XXXn.] d f a a a a a a e $ $ e a a 0 a a 4 # $ e y s 0 0 a y e $ & t 0 d k M k k M k 7.}.$X%X%X",
"%X%X%X}.z.%.o.+.$.+.o.o.} ) | +.+.$.o.} U } o.E ) +.+.+.} I S ) $.%.#.%.X.R ` %.o.^ D ~ U ,.Y.$X$X#X",
"XX}.%X[.x.9.9.9.9.9.6.6.=.#.:.6.,.,.,.:.>.6.u.<.<.,.6.,.+.! +.<.u.6.u.u.9.<.6.u.9.<.,.,.,.6.B.$XXXXX",
"}.%XXX[.k.,.-.>.,.6.,.>.,.-.+.| | +.&.<.,.=.&.-.<.>.=.:.-.>.>.>.6.6.6.6.6.9.6.-.&.&.=.=.-.6.V.#X.X}.",
"%X}.@X[.d.` A J ~ ' ~ ~ _ U x m P ) _ _ _ A b A T I P ^ ' } ^ ~ ^ U T E ' ' ' D b b C V C >.Q.#X%X}.",
";X=X&X%Xm.( q 8 1 1 1 8 1 5 = O X > 5 5 5 5 8 , X   + 1 1 1 1 6 < o   . , 5 5 6 5 5 9 j j 4.^..X.X}.",
"=X&X}.].g.( d s a a a a a 0 3 * - r a a a a a t ; - e u a a a a a e @ - t a a 7 a a d k k 3._. X{.XX",
"&X%X{.Z.w.D d s s s s s s s 3 * @ 4 a 7 a s s 3 = @ = u a 7 a a 7 2 @ * r a 0 0 0 a s k k 5.'.@X$X#X",
"%XXX}.^.e.J a a s M j d M d 3 O @ 2 7 a q d 0 4 = @ 2 7 0 a 0 0 4 2 @ = 4 s 0 0 0 a s k k *.^.XX%X#X",
"XX&X%X}.x.K s s s k d k d d 7 * # 3 0 0 0 0 0 4 * @ = 0 0 0 0 0 0 = @ = 4 0 0 0 0 a q k k 4._.@X%X#X",
"&X&X%X%Xb. .s 0 d M j k M d 4 * # 3 0 0 0 0 0 3 * @ 2 4 0 0 0 0 4 2 @ * 4 0 0 0 0 7 s k k 8.'.@X@X#X",
"%XXX}.}.M.] s a d k k k d d 3 * @ 3 0 0 0 0 0 4 * * 2 7 a 0 0 0 0 = @ = 4 a 0 a 0 0 s k k 8.}.$X%X#X",
"{.%X%X%XM.] a a w k k k M k 3 * # 3 0 q a 0 0 4 * @ = 4 0 0 a q 4 = @ = 0 d d q 0 0 s k k 8.[.#X{.).",
"{.}.}.}.b.L a a s d d k k d 4 * @ 3 q d s 0 0 4 * * 2 7 q 0 0 0 0 = @ = 4 q s d s s s d k 7.`.}.}..X",
"%X%X}.%XN.] a a 0 0 d k k k 3 * = 4 s a 0 0 0 3 * + = 7 0 0 0 s 0 = @ * 4 0 0 a w d d j k 4._.}.OXXX",
"}.XX%X%Xb.L s a 0 0 s d j d 7 * @ 4 0 0 0 0 0 4 = @ = 7 0 0 q s q = @ = 4 0 0 0 q s k M M 7.`.(.].XX",
".X}.XX%XN.( s a a q s k k d 3 * @ 2 a 0 0 0 0 4 * * = 7 0 s d s 0 = @ = 4 0 0 0 a 0 s d d 4.`.G.L.OX",
"G.).XX$Xz.J d d a 0 s k M d 3 @ * 3 0 0 0 0 0 3 * @ = 7 q s s 0 7 = @ * 4 0 0 7 0 a a 0 s -.[.{.J.K.",
"F.{.XXXXx.L d d s q q d k d 4 * # 3 0 0 a q 0 4 * * = 7 0 0 0 0 0 = @ * 4 0 0 a 0 q s a a -.~.}.H.y.",
".X*XXX%XC.] a a d s q s k d 3 * # 3 0 q s s 0 4 * * = a 0 0 a 0 7 = * = 3 q q q s s s q a ;.c./.L.P.",
"/.L.F.R.e.J d a s s s s M d 4 * * 3 s d s a a 4 = * = u 0 a a a u = * * t a s d g s a a a 5.|.P.Z./.",
" X).A.t.e.J a a 0 0 q d k d t @ * 3 0 a 0 0 a r % & = 7 a 7 0 y 7 e & # 4 q s a a 0 a 7 a 3.$X/.~.{.",
"XX@X{./.h./ a a a a f d M k 4 * = r a a s a s t % & e a f a a s y e & = 4 q s f f a f s f ;.T.@X%X%X",
"@X}.{.`.h.&.E S ) o.#.=.*.o.E I I { %.X.{ +.&.#.@.#.&.&.%.+.$.%.&.@.{ Y I E } %.&.%.%.$.o.u.V.|.OXXX",
"%X%X%X@Xj.#.! +.,.,.=.:.:.#.#.#.=.<.6.:.#.>.9.:.+.| &.6.<.#.:.6.9.9.:.=.<.,.:.:.<.u.6.#.| :.l.D..XXX",
"XX}.XX`.j.&.#.,.6.>.&.{ Y W X.E Q o.&.-.,.<.,.o.| +.=.%.+.=.,.>.,.,.=.&.<.:.+.+.:.,.>.+.W :.h.L.XX%X",
").].~.L.g.o.^ ^ J ^ ^ J V A S m l x V J ^ _ ^ J P T I b A ^ ^ ~ ^ U P I U ^ J D J ~ ^ D D 6.^.*X*X#X",
").L.R.oXm.K 5 6 5 5 6 5 8 5 + X + , 9 9 5 5 1 = .   X 8 6 5 5 6 < o   X > 6 9 6 5 1 6 6 6 3.@X*X(.{.",
"t.S.J.).M.O.F B g s g d d a r - - r a d d s f t - % e a d d a y a ; & ; t s d s a a g v B 0.}._.H.J.",
"L.S.r.G.E.s.8.;.H a s k d a 2 @ * 4 s w k d s 7 * * 2 a k d d s q = @ = 7 s d d k g ^ >.a.N.&X.X XS.",
".XA.A.].&X&XXXQ.O.s a d d s 2 @ * 7 j k k k k 0 = * 2 d k k k k s 2 @ = a M k k k N 0.$X%X&X$X$XOX X",
"XXOX%X-X%X~.{.C...a s d s 0 2 @ * 7 d j k k k 0 = @ 2 d k k j k d 2 @ * 0 M k k k N q.+X@X{.@X&XOX{.",
"$X*X&X.X/.(.).v.[ s s s 0 0 3 @ * 4 d d d k k 0 * @ 3 s j k k k s 2 @ = 0 k k k k N p.$X@X@X%X^.S.).",
"%X$XXX.XXXXX.XC. .s s a 0 7 2 @ * 3 0 0 q M M 0 = @ 2 s M k k k d 2 @ = a k k k M N q.@X{.^.T.K.).#X",
"%X%X%X%X%X%X%XW.O.g s q 0 0 3 @ = 3 0 0 q d d 7 = @ 2 w k d d k d 2 O = 0 k k j M N q.@X^.D.|.=X&X%X",
"%X$X#X#XXX$X#X!.p.O.' ^ D n z l : p c c v B B V i : A B B B B B c b P T ^ F F ( O.2.k.G.S.J.L.%X&X$X",
"$X%X$XOX%X$X%X#X$X{.j.:.=.#.+.+.@.@.@.#.@.@.#.&.#.=.:.&.#.@.@.#.#.=.<.9.>.#.+.u.W..XZ.r.Z.t.K.$XXX.X",
".X#X X).).{..X%X.X}.z.:.,.9.6.,.<.6.<.<.,.<.9.9.u.9.9.9.6.<.9.9.9.,.=.@.+.X.#.i.E.).c.G.L.Z.S.K. X X",
" X(.~.).T.F.(.XXL.~.j.#.#.<.<.+.! #.+.#.,.<.9.9.9.9.9.9.>.=.-.9.6.=.Q E ! E ! i.U..X%X*X=X Xy.D.$XXX"
};
